<svg width="24.999975" height="25.000000" viewBox="0 0 25 25" fill="none" xmlns="http://www.w3.org/2000/svg" xmlns:xlink="http://www.w3.org/1999/xlink">
	<desc>
			Created with Pixso.
	</desc>
	<defs/>
	<path id="Vector" d="M17.17 11.78C16.33 11.78 15.64 12.44 15.64 13.29C15.64 14.13 16.33 14.82 17.15 14.82C17.99 14.82 18.66 14.13 18.66 13.31C18.68 12.44 18.02 11.78 17.17 11.78ZM17.17 14.05C16.74 14.05 16.41 13.72 16.41 13.29C16.41 12.85 16.74 12.52 17.17 12.52C17.61 12.52 17.94 12.88 17.94 13.29C17.94 13.72 17.58 14.05 17.17 14.05Z" fill="#999999" fill-opacity="1.000000" fill-rule="nonzero"/>
	<path id="Vector" d="M7.79 9.58C5.77 9.56 4.01 11.24 4.06 13.39C4.09 15.38 5.75 17.1 7.84 17.07C9.89 17.04 11.55 15.38 11.55 13.34C11.55 11.27 9.89 9.58 7.79 9.58ZM7.84 15.61C6.49 15.66 5.39 14.59 5.39 13.29C5.39 11.96 6.49 10.94 7.71 10.96C8.99 10.96 10.04 11.98 10.04 13.29C10.07 14.59 9.04 15.56 7.84 15.61Z" fill="#999999" fill-opacity="1.000000" fill-rule="nonzero"/>
	<path id="Vector" d="M12.5 0C5.59 0 0 5.59 0 12.5C0 19.4 5.59 25 12.5 25C19.4 25 25 19.4 25 12.5C25 5.59 19.4 0 12.5 0ZM19.68 17.35C18.91 17.84 18.07 18.07 17.17 18.07C16.79 18.07 16.41 18.02 16.05 17.91C15.15 17.68 14.39 17.22 13.75 16.56C13.67 16.48 13.59 16.38 13.49 16.28C13.16 16.79 12.83 17.28 12.5 17.79C12.16 17.28 11.83 16.79 11.5 16.3C11.47 16.3 11.47 16.33 11.47 16.33L11.45 16.35C10.68 17.28 9.71 17.81 8.53 18.02C7.87 18.12 7.23 18.09 6.59 17.91C5.7 17.66 4.93 17.2 4.29 16.48C3.68 15.79 3.32 15 3.16 14.08C3.01 13.24 3.19 12.42 3.24 12.21C3.39 11.63 3.62 11.11 3.98 10.63C4.01 10.6 4.01 10.53 4.01 10.5C3.88 9.99 3.62 9.53 3.34 9.07C3.27 8.97 3.19 8.87 3.11 8.74L3.11 8.71C3.14 8.71 3.14 8.71 3.16 8.71C4.11 8.71 5.06 8.71 6 8.71C6.05 8.71 6.08 8.69 6.13 8.66C6.79 8.23 7.51 7.89 8.25 7.64C8.79 7.46 9.33 7.31 9.89 7.2C10.42 7.1 10.96 7.02 11.52 7C12.85 6.9 13.93 7.02 14.64 7.13C15.18 7.2 15.69 7.33 16.2 7.48C17.1 7.77 17.91 8.15 18.71 8.64C18.76 8.66 18.83 8.69 18.91 8.69C19.83 8.69 20.75 8.69 21.67 8.69C21.75 8.69 21.83 8.69 21.9 8.69C21.9 8.71 21.9 8.71 21.9 8.71C21.85 8.79 21.83 8.84 21.77 8.92C21.47 9.4 21.19 9.89 21.03 10.45C21.01 10.5 21.01 10.55 21.06 10.63C21.88 11.8 22.13 13.11 21.8 14.51C21.44 15.72 20.75 16.66 19.68 17.35Z" fill="#999999" fill-opacity="1.000000" fill-rule="nonzero"/>
	<path id="Vector" d="M7.71 11.78C6.9 11.78 6.21 12.47 6.21 13.29C6.21 14.13 6.9 14.8 7.74 14.8C8.56 14.8 9.25 14.11 9.25 13.26C9.25 12.44 8.58 11.78 7.71 11.78ZM7.74 14.08C7.31 14.08 6.95 13.75 6.95 13.29C6.95 12.85 7.28 12.52 7.71 12.52C8.15 12.52 8.48 12.85 8.51 13.29C8.53 13.72 8.17 14.05 7.74 14.08Z" fill="#999999" fill-opacity="1.000000" fill-rule="nonzero"/>
	<path id="Vector" d="M17.1 9.61C15.05 9.66 13.44 11.29 13.42 13.34C13.42 15.41 15.1 17.12 17.17 17.1C19.24 17.1 20.93 15.43 20.93 13.34C20.93 11.19 19.17 9.56 17.1 9.61ZM17.28 15.61C15.92 15.66 14.85 14.59 14.85 13.29C14.85 11.96 15.95 10.94 17.17 10.96C18.45 10.96 19.5 11.98 19.5 13.29C19.5 14.57 18.48 15.56 17.28 15.61Z" fill="#999999" fill-opacity="1.000000" fill-rule="nonzero"/>
	<path id="Vector" d="M13.98 9.86C14.8 9.1 15.79 8.71 16.92 8.61C15.59 8.02 14.18 7.77 12.73 7.74C11.09 7.71 9.48 7.94 7.97 8.58C9.12 8.66 10.12 9.04 10.96 9.81C11.8 10.58 12.29 11.55 12.47 12.67C12.67 11.57 13.16 10.63 13.98 9.86Z" fill="#999999" fill-opacity="1.000000" fill-rule="nonzero"/>
</svg>
