<svg width="24.999975" height="25.000000" viewBox="0 0 25 25" fill="none" xmlns="http://www.w3.org/2000/svg" xmlns:xlink="http://www.w3.org/1999/xlink">
	<desc>
			Created with Pixso.
	</desc>
	<defs>
		<clipPath id="clip370726_103">
			<rect id="social" rx="0.000000" width="24.744352" height="24.744352" transform="translate(0.127812 0.127812)" fill="white" fill-opacity="0"/>
		</clipPath>
	</defs>
	<rect id="social" rx="0.000000" width="24.744352" height="24.744352" transform="translate(0.127812 0.127812)" fill="#FFFFFF" fill-opacity="0"/>
	<g clip-path="url(#clip370726_103)">
		<path id="Vector" d="M12.5 0C5.59 0 0 5.59 0 12.5C0 19.4 5.59 25 12.5 25C19.4 25 25 19.4 25 12.5C25 5.59 19.4 0 12.5 0ZM18.83 13.85C19.42 14.41 20.04 14.95 20.55 15.59C20.78 15.87 21.01 16.15 21.16 16.48C21.39 16.94 21.19 17.45 20.78 17.48L18.22 17.48C17.56 17.53 17.05 17.28 16.59 16.82C16.23 16.46 15.89 16.07 15.56 15.69C15.43 15.54 15.28 15.38 15.1 15.28C14.74 15.05 14.44 15.13 14.26 15.49C14.05 15.87 14 16.28 13.98 16.69C13.95 17.3 13.77 17.45 13.16 17.48C11.86 17.53 10.63 17.35 9.5 16.69C8.51 16.1 7.71 15.31 7.05 14.39C5.72 12.6 4.72 10.63 3.8 8.61C3.6 8.15 3.75 7.92 4.26 7.89C5.11 7.87 5.93 7.87 6.77 7.89C7.1 7.89 7.33 8.1 7.46 8.4C7.92 9.5 8.46 10.58 9.15 11.55C9.33 11.8 9.53 12.06 9.79 12.27C10.09 12.47 10.3 12.39 10.45 12.06C10.53 11.86 10.58 11.63 10.6 11.4C10.68 10.63 10.68 9.86 10.55 9.1C10.48 8.58 10.22 8.28 9.73 8.17C9.48 8.12 9.53 8.05 9.63 7.89C9.84 7.66 10.04 7.51 10.42 7.51L13.31 7.51C13.77 7.61 13.88 7.79 13.93 8.25L13.93 11.47C13.93 11.65 14 12.19 14.34 12.29C14.59 12.37 14.77 12.16 14.92 12.01C15.61 11.27 16.1 10.4 16.56 9.5C16.76 9.1 16.92 8.69 17.1 8.28C17.22 7.97 17.4 7.82 17.76 7.82L20.55 7.82C20.62 7.82 20.7 7.82 20.8 7.84C21.26 7.92 21.39 8.12 21.26 8.58C21.03 9.3 20.6 9.91 20.16 10.5C19.7 11.14 19.19 11.75 18.73 12.42C18.27 13.03 18.3 13.34 18.83 13.85Z" fill="#999999" fill-opacity="1.000000" fill-rule="nonzero"/>
	</g>
</svg>
