<svg width="25.000000" height="25.000000" viewBox="0 0 25 25" fill="none" xmlns="http://www.w3.org/2000/svg" xmlns:xlink="http://www.w3.org/1999/xlink">
	<desc>
			Created with Pixso.
	</desc>
	<defs/>
	<rect id="ok" rx="0.000000" width="24.000000" height="24.000000" transform="translate(0.500000 0.500000)" fill="#FFFFFF" fill-opacity="0"/>
	<path id="ok" d="M25 12.5C25 19.4 19.4 25 12.5 25C5.59 25 0 19.4 0 12.5C0 5.59 5.59 0 12.5 0C19.4 0 25 5.59 25 12.5ZM12.57 3.81C10.08 3.81 8.06 5.83 8.06 8.32C8.06 10.81 10.08 12.83 12.57 12.83C15.06 12.83 17.09 10.81 17.09 8.32C17.09 5.83 15.06 3.81 12.57 3.81ZM12.57 10.19C11.54 10.19 10.71 9.35 10.71 8.32C10.71 7.29 11.54 6.45 12.57 6.45C13.6 6.45 14.44 7.29 14.44 8.32C14.44 9.35 13.6 10.19 12.57 10.19ZM14.17 16.43C15.97 16.06 17.06 15.2 17.11 15.16C17.64 14.73 17.73 13.96 17.3 13.43C16.88 12.9 16.11 12.82 15.58 13.24C15.57 13.25 14.41 14.14 12.51 14.14C10.61 14.14 9.43 13.25 9.42 13.24C8.89 12.82 8.12 12.9 7.69 13.43C7.27 13.96 7.35 14.73 7.88 15.16C7.94 15.2 9.07 16.08 10.93 16.44L8.34 19.15C7.87 19.63 7.88 20.41 8.37 20.88C8.61 21.11 8.91 21.23 9.22 21.23C9.54 21.23 9.86 21.1 10.1 20.85L12.51 18.29L15.16 20.87C15.64 21.35 16.42 21.35 16.89 20.87C17.37 20.39 17.37 19.61 16.89 19.13L14.17 16.43Z" fill="#999999" fill-opacity="1.000000" fill-rule="evenodd"/>
</svg>
