<svg width="64.000000" height="66.000000" viewBox="0 0 64 66" fill="none" xmlns="http://www.w3.org/2000/svg" xmlns:xlink="http://www.w3.org/1999/xlink">
	<desc>
			Created with Pixso.
	</desc>
	<defs>
		<clipPath id="clip370726_458">
			<rect id="bathtub" rx="0.000000" width="63.000000" height="65.000000" transform="translate(0.500000 0.500000)" fill="white" fill-opacity="0"/>
		</clipPath>
	</defs>
	<rect id="bathtub" rx="0.000000" width="63.000000" height="65.000000" transform="translate(0.500000 0.500000)" fill="#FFFFFF" fill-opacity="0"/>
	<g clip-path="url(#clip370726_458)">
		<path id="Vector" d="M37.95 58.4L20.28 58.4C11.37 58.4 4.12 50.93 4.12 41.73L4.12 25.93C4.12 24.9 4.93 24.07 5.92 24.07C6.91 24.07 7.72 24.91 7.72 25.93L7.72 41.75C7.72 48.89 13.35 54.69 20.27 54.69L37.93 54.69C38.93 54.69 39.73 55.53 39.73 56.55C39.75 57.58 38.95 58.4 37.95 58.4Z" fill="#2D527C" fill-opacity="1.000000" fill-rule="nonzero"/>
		<path id="Vector" d="M48.46 57.58C47.71 57.58 47.02 57.1 46.76 56.33C46.43 55.36 46.92 54.3 47.86 53.96C52.88 52.14 56.26 47.23 56.26 41.73L56.26 39.87C56.26 38.83 57.07 38.01 58.06 38.01C59.04 38.01 59.86 38.85 59.86 39.87L59.86 41.73C59.86 48.8 55.52 55.13 49.04 57.46C48.86 57.54 48.66 57.58 48.46 57.58Z" fill="#2D527C" fill-opacity="1.000000" fill-rule="nonzero"/>
		<path id="Vector" d="M58.58 32.07L5.41 32.07C3.42 32.07 1.81 30.4 1.81 28.35C1.81 26.3 3.42 24.64 5.41 24.64L58.6 24.64C60.58 24.64 62.2 26.3 62.2 28.35C62.2 30.4 60.58 32.07 58.58 32.07Z" fill="#CEE8FA" fill-opacity="1.000000" fill-rule="nonzero"/>
		<path id="Vector" d="M58.58 33.92L5.41 33.92C2.42 33.92 0 31.42 0 28.34C0 25.26 2.42 22.76 5.41 22.76L58.6 22.76C61.58 22.76 64.01 25.26 64.01 28.34C64.01 31.42 61.57 33.92 58.58 33.92ZM5.41 26.49C4.41 26.49 3.61 27.32 3.61 28.34C3.61 29.36 4.42 30.2 5.41 30.2L58.6 30.2C59.6 30.2 60.4 29.36 60.4 28.34C60.4 27.32 59.58 26.49 58.6 26.49L5.41 26.49Z" fill="#2D527C" fill-opacity="1.000000" fill-rule="nonzero"/>
		<path id="Vector" d="M17.38 58.65C17.38 60.44 15.97 61.9 14.23 61.9C12.49 61.9 11.08 60.44 11.08 58.65C11.08 56.85 12.49 55.4 14.23 55.4C15.97 55.4 17.38 56.85 17.38 58.65Z" fill="#CEE8FA" fill-opacity="1.000000" fill-rule="evenodd"/>
		<path id="Vector" d="M14.23 63.76C11.5 63.76 9.27 61.47 9.27 58.65C9.27 55.82 11.5 53.53 14.23 53.53C16.97 53.53 19.2 55.82 19.2 58.65C19.2 61.47 16.97 63.76 14.23 63.76ZM14.23 57.26C13.48 57.26 12.88 57.89 12.88 58.65C12.88 59.41 13.5 60.04 14.23 60.04C14.97 60.04 15.58 59.41 15.58 58.65C15.58 57.89 14.98 57.26 14.23 57.26Z" fill="#2D527C" fill-opacity="1.000000" fill-rule="nonzero"/>
		<path id="Vector" d="M52.91 58.65C52.91 60.44 51.5 61.9 49.76 61.9C48.02 61.9 46.61 60.44 46.61 58.65C46.61 56.85 48.02 55.4 49.76 55.4C51.5 55.4 52.91 56.85 52.91 58.65Z" fill="#CEE8FA" fill-opacity="1.000000" fill-rule="evenodd"/>
		<path id="Vector" d="M49.76 63.76C47.02 63.76 44.8 61.47 44.8 58.65C44.8 55.82 47.02 53.53 49.76 53.53C52.5 53.53 54.72 55.82 54.72 58.65C54.72 61.47 52.48 63.76 49.76 63.76ZM49.76 57.26C49.01 57.26 48.41 57.89 48.41 58.65C48.41 59.41 49.02 60.04 49.76 60.04C50.5 60.04 51.11 59.41 51.11 58.65C51.11 57.89 50.5 57.26 49.76 57.26Z" fill="#2D527C" fill-opacity="1.000000" fill-rule="nonzero"/>
		<path id="Vector" d="M40.42 11.43L23.57 11.43C22.57 11.43 21.77 10.59 21.77 9.57C21.77 8.55 22.58 7.72 23.57 7.72L40.43 7.72C41.43 7.72 42.23 8.55 42.23 9.57C42.23 10.59 41.42 11.43 40.42 11.43Z" fill="#F0BF5F" fill-opacity="1.000000" fill-rule="nonzero"/>
		<path id="Vector" d="M41.01 15.05C40.01 15.05 39.21 14.21 39.21 13.19L39.21 4.08C39.21 3.05 40.02 2.22 41.01 2.22C42 2.22 42.81 3.06 42.81 4.08L42.81 13.19C42.81 14.23 42.01 15.05 41.01 15.05Z" fill="#F0BF5F" fill-opacity="1.000000" fill-rule="nonzero"/>
		<path id="Vector" d="M44.26 5.95L37.77 5.95C36.77 5.95 35.97 5.11 35.97 4.09C35.97 3.08 36.78 2.24 37.77 2.24L44.26 2.24C45.26 2.24 46.06 3.08 46.06 4.09C46.06 5.11 45.25 5.95 44.26 5.95Z" fill="#F0BF5F" fill-opacity="1.000000" fill-rule="nonzero"/>
		<path id="Vector" d="M22.98 15.05C21.98 15.05 21.18 14.21 21.18 13.19L21.18 4.08C21.18 3.05 22 2.22 22.98 2.22C23.97 2.22 24.78 3.06 24.78 4.08L24.78 13.19C24.78 14.23 23.98 15.05 22.98 15.05Z" fill="#F0BF5F" fill-opacity="1.000000" fill-rule="nonzero"/>
		<path id="Vector" d="M26.22 5.95L19.73 5.95C18.73 5.95 17.93 5.11 17.93 4.1C17.93 3.08 18.75 2.24 19.73 2.24L26.22 2.24C27.22 2.24 28.02 3.08 28.02 4.1C28.02 5.11 27.22 5.95 26.22 5.95Z" fill="#F0BF5F" fill-opacity="1.000000" fill-rule="nonzero"/>
		<path id="Vector" d="M32 19.33C31 19.33 30.2 18.49 30.2 17.47L30.2 9.75C30.2 8.72 31.01 7.9 32 7.9C32.98 7.9 33.79 8.73 33.79 9.75L33.79 17.47C33.79 18.49 33 19.33 32 19.33Z" fill="#F0BF5F" fill-opacity="1.000000" fill-rule="nonzero"/>
		<path id="Vector" d="M24.46 43.15L14.75 43.15C13.52 43.15 12.52 42.12 12.52 40.86L12.52 24.62L26.67 24.62L26.67 40.86C26.67 42.13 25.68 43.15 24.46 43.15Z" fill="#CEE8FA" fill-opacity="1.000000" fill-rule="nonzero"/>
		<path id="Vector" d="M24.46 45.02L14.75 45.02C12.53 45.02 10.72 43.17 10.72 40.87L10.72 24.63C10.72 23.6 11.53 22.77 12.52 22.77L26.67 22.77C27.67 22.77 28.47 23.61 28.47 24.63L28.47 40.87C28.48 43.15 26.67 45.02 24.46 45.02ZM14.33 26.49L14.33 40.87C14.33 41.1 14.52 41.3 14.75 41.3L24.46 41.3C24.68 41.3 24.87 41.1 24.87 40.87L24.87 26.49L14.33 26.49Z" fill="#2D527C" fill-opacity="1.000000" fill-rule="nonzero"/>
	</g>
</svg>
