<svg width="64.000000" height="66.000000" viewBox="0 0 64 66" fill="none" xmlns="http://www.w3.org/2000/svg" xmlns:xlink="http://www.w3.org/1999/xlink">
	<desc>
			Created with Pixso.
	</desc>
	<defs>
		<clipPath id="clip370726_512">
			<rect rx="0.000000" width="63.000000" height="65.000000" transform="translate(0.500000 0.500000)" fill="white" fill-opacity="0"/>
		</clipPath>
	</defs>
	<rect rx="0.000000" width="63.000000" height="65.000000" transform="translate(0.500000 0.500000)" fill="#FFFFFF" fill-opacity="0"/>
	<g clip-path="url(#clip370726_512)">
		<path d="M54.02 49.71L9.97 49.71C8.96 49.71 8.15 48.88 8.15 47.83L8.15 45.85C8.15 32.29 18.85 21.25 32 21.25C34.48 21.25 36.93 21.65 39.28 22.42C40.25 22.75 40.77 23.8 40.47 24.8C40.16 25.79 39.13 26.33 38.17 26.02C36.18 25.36 34.11 25.03 32 25.03C20.86 25.03 11.8 34.37 11.8 45.86L11.8 45.96L52.2 45.96L52.2 45.86C52.2 40.27 50.07 35.01 46.22 31.06C45.51 30.33 45.5 29.14 46.21 28.39C46.92 27.66 48.07 27.65 48.8 28.38C53.35 33.03 55.86 39.23 55.86 45.85L55.86 47.83C55.85 48.88 55.03 49.71 54.02 49.71Z" fill="#F0BF5F" fill-opacity="1.000000" fill-rule="nonzero"/>
		<path d="M32 24.58C30.98 24.58 30.17 23.74 30.17 22.7L30.17 17.36C30.17 16.31 30.98 15.48 32 15.48C33.01 15.48 33.82 16.31 33.82 17.36L33.82 22.7C33.82 23.74 33.01 24.58 32 24.58Z" fill="#F0BF5F" fill-opacity="1.000000" fill-rule="nonzero"/>
		<path d="M36.47 18.8L27.52 18.8C26.51 18.8 25.7 17.96 25.7 16.92C25.7 15.88 26.51 15.04 27.52 15.04L36.47 15.04C37.48 15.04 38.3 15.88 38.3 16.92C38.3 17.96 37.48 18.8 36.47 18.8Z" fill="#F0BF5F" fill-opacity="1.000000" fill-rule="nonzero"/>
		<path d="M16 47.83L47.98 47.83L47.98 55.76L16 55.76L16 47.83Z" fill="#CEE8FA" fill-opacity="1.000000" fill-rule="evenodd"/>
		<path d="M48 57.64L16 57.64C14.98 57.64 14.17 56.8 14.17 55.76L14.17 47.83C14.17 46.79 14.98 45.95 16 45.95L48 45.95C49.01 45.95 49.82 46.79 49.82 47.83L49.82 55.76C49.82 56.8 49 57.64 48 57.64ZM17.83 53.88L46.17 53.88L46.17 49.71L17.83 49.71L17.83 53.88Z" fill="#F0BF5F" fill-opacity="1.000000" fill-rule="nonzero"/>
		<path d="M54.23 61.81L9.76 61.81C7.63 61.81 5.91 60.03 5.91 57.84C5.91 55.64 7.63 53.86 9.76 53.86L54.23 53.86C56.36 53.86 58.08 55.64 58.08 57.84C58.07 60.03 56.36 61.81 54.23 61.81Z" fill="#CEE8FA" fill-opacity="1.000000" fill-rule="nonzero"/>
		<path d="M54.23 63.69L9.76 63.69C6.63 63.69 4.08 61.07 4.08 57.84C4.08 54.6 6.62 51.98 9.76 51.98L54.23 51.98C57.36 51.98 59.91 54.61 59.91 57.84C59.9 61.07 57.36 63.69 54.23 63.69ZM9.76 55.76C8.65 55.76 7.75 56.69 7.75 57.84C7.75 58.98 8.65 59.91 9.76 59.91L54.23 59.91C55.35 59.91 56.25 58.98 56.25 57.84C56.25 56.69 55.35 55.76 54.23 55.76L9.76 55.76Z" fill="#2D527C" fill-opacity="1.000000" fill-rule="nonzero"/>
		<path d="M32 9.73C30.98 9.73 30.17 8.89 30.17 7.85L30.17 4.18C30.17 3.14 30.98 2.3 32 2.3C33.01 2.3 33.82 3.14 33.82 4.18L33.82 7.85C33.82 8.89 33.01 9.73 32 9.73Z" fill="#2D527C" fill-opacity="1.000000" fill-rule="nonzero"/>
		<path d="M62.17 35.3L58.62 35.3C57.61 35.3 56.8 34.46 56.8 33.42C56.8 32.38 57.61 31.54 58.62 31.54L62.17 31.54C63.18 31.54 64 32.38 64 33.42C64 34.46 63.18 35.3 62.17 35.3Z" fill="#2D527C" fill-opacity="1.000000" fill-rule="nonzero"/>
		<path d="M5.37 35.3L1.82 35.3C0.81 35.3 0 34.46 0 33.42C0 32.38 0.81 31.54 1.82 31.54L5.37 31.54C6.38 31.54 7.2 32.38 7.2 33.42C7.2 34.46 6.38 35.3 5.37 35.3Z" fill="#2D527C" fill-opacity="1.000000" fill-rule="nonzero"/>
		<path d="M49.53 17.22C49.07 17.22 48.6 17.04 48.24 16.66C47.53 15.93 47.53 14.73 48.24 13.99L50.74 11.42C51.46 10.68 52.62 10.68 53.33 11.42C54.04 12.15 54.04 13.35 53.33 14.08L50.82 16.68C50.47 17.04 49.99 17.22 49.53 17.22Z" fill="#2D527C" fill-opacity="1.000000" fill-rule="nonzero"/>
		<path d="M14.46 17.22C14 17.22 13.52 17.04 13.17 16.66L10.66 14.07C9.95 13.34 9.95 12.14 10.66 11.4C11.37 10.67 12.53 10.67 13.25 11.4L15.76 13.99C16.47 14.73 16.47 15.93 15.76 16.66C15.4 17.04 14.93 17.22 14.46 17.22Z" fill="#2D527C" fill-opacity="1.000000" fill-rule="nonzero"/>
	</g>
</svg>
