<svg width="64.000000" height="66.000000" viewBox="0 0 64 66" fill="none" xmlns="http://www.w3.org/2000/svg" xmlns:xlink="http://www.w3.org/1999/xlink">
	<desc>
			Created with Pixso.
	</desc>
	<defs>
		<clipPath id="clip370726_480">
			<rect id="swimming-pool" rx="0.000000" width="63.000000" height="65.000000" transform="translate(0.500000 0.500000)" fill="white" fill-opacity="0"/>
		</clipPath>
	</defs>
	<rect id="swimming-pool" rx="0.000000" width="63.000000" height="65.000000" transform="translate(0.500000 0.500000)" fill="#FFFFFF" fill-opacity="0"/>
	<g clip-path="url(#clip370726_480)">
		<path id="Vector" d="M32.78 29.54C31.8 29.54 30.98 28.72 30.98 27.68L30.98 6.63C31 3.32 33.77 0.64 37.2 0.64C40.62 0.64 43.4 3.33 43.4 6.65C43.4 7.66 42.6 8.5 41.6 8.5C40.6 8.5 39.8 7.68 39.8 6.65C39.8 5.38 38.62 4.35 37.18 4.35C35.75 4.35 34.57 5.38 34.57 6.65L34.57 27.7C34.58 28.7 33.78 29.54 32.78 29.54Z" fill="#F0BF5F" fill-opacity="1.000000" fill-rule="nonzero"/>
		<path id="Vector" d="M53.38 34.9C52.4 34.9 51.58 34.08 51.58 33.05L51.58 6.63C51.6 3.32 54.37 0.64 57.8 0.64C61.22 0.64 64 3.32 64 6.63C64 7.65 63.2 8.49 62.2 8.49C61.21 8.49 60.4 7.66 60.4 6.63C60.4 5.37 59.22 4.34 57.78 4.34C56.35 4.34 55.17 5.37 55.17 6.63L55.17 33.05C55.18 34.06 54.38 34.9 53.38 34.9Z" fill="#F0BF5F" fill-opacity="1.000000" fill-rule="nonzero"/>
		<path id="Vector" d="M42.5 16.11L32.8 16.11C31.81 16.11 31 15.28 31 14.25C31 13.22 31.8 12.4 32.8 12.4L42.5 12.4C43.48 12.4 44.3 13.22 44.3 14.25C44.3 15.28 43.48 16.11 42.5 16.11Z" fill="#F0BF5F" fill-opacity="1.000000" fill-rule="nonzero"/>
		<path id="Vector" d="M42.5 29.54L32.8 29.54C31.81 29.54 31 28.72 31 27.68C31 26.65 31.8 25.83 32.8 25.83L42.5 25.83C43.48 25.83 44.3 26.65 44.3 27.68C44.28 28.7 43.48 29.54 42.5 29.54Z" fill="#F0BF5F" fill-opacity="1.000000" fill-rule="nonzero"/>
		<path id="Vector" d="M53.38 22.82L43.68 22.82C42.7 22.82 41.88 22 41.88 20.97C41.88 19.94 42.68 19.11 43.68 19.11L53.38 19.11C54.37 19.11 55.18 19.94 55.18 20.97C55.18 22 54.38 22.82 53.38 22.82Z" fill="#F0BF5F" fill-opacity="1.000000" fill-rule="nonzero"/>
		<path id="Vector" d="M58.96 48.35C58.96 50.56 56.39 52.36 53.22 52.36C50.06 52.36 47.48 50.56 47.48 48.35C47.48 50.56 44.92 52.36 41.74 52.36C38.58 52.36 36.01 50.56 36.01 48.35L36.09 48.35C36.09 50.56 33.53 52.36 30.36 52.36C27.18 52.36 24.62 50.56 24.62 48.35C24.62 50.56 22.06 52.36 18.88 52.36C15.71 52.36 13.14 50.56 13.14 48.35L13.23 48.35C13.23 50.56 10.67 52.36 7.49 52.36C4.32 52.36 1.76 50.56 1.76 48.35L1.76 37C1.76 39.22 4.32 41.01 7.49 41.01C10.67 41.01 13.23 39.22 13.23 37L13.14 37C13.14 39.22 15.71 41.01 18.88 41.01C22.06 41.01 24.62 39.22 24.62 37C24.62 39.22 27.18 41.01 30.36 41.01C33.53 41.01 36.09 39.22 36.09 37L36.01 37C36.01 39.22 38.57 41.01 41.74 41.01C44.92 41.01 47.48 39.22 47.48 37C47.48 39.22 50.04 41.01 53.22 41.01C56.39 41.01 58.96 39.22 58.96 37L58.96 48.35Z" fill="#CEE8FA" fill-opacity="1.000000" fill-rule="nonzero"/>
		<path id="Vector" d="M53.22 54.21C50.9 54.21 48.86 53.44 47.48 52.19C46.11 53.44 44.07 54.21 41.75 54.21C39.47 54.21 37.43 53.45 36.06 52.23C34.68 53.45 32.65 54.21 30.37 54.21C28.05 54.21 26.01 53.44 24.63 52.19C23.26 53.44 21.22 54.21 18.9 54.21C16.62 54.21 14.58 53.45 13.21 52.23C11.83 53.47 9.8 54.21 7.52 54.21C3.3 54.21 0 51.64 0 48.35L0 37C0 35.99 0.8 35.15 1.8 35.15C2.8 35.15 3.6 35.97 3.6 37C3.6 38 5.32 39.16 7.53 39.16C9.53 39.16 11.07 38.27 11.41 37.37C11.4 37.25 11.4 37.12 11.4 37C11.4 35.99 12.2 35.15 13.2 35.15L13.28 35.15C14.27 35.15 15.08 35.97 15.08 37C15.08 37.12 15.08 37.25 15.07 37.37C15.41 38.27 16.95 39.16 18.95 39.16C21.16 39.16 22.88 38 22.88 37C22.88 35.99 23.68 35.15 24.68 35.15C25.68 35.15 26.48 35.97 26.48 37C26.48 38 28.21 39.16 30.42 39.16C32.42 39.16 33.96 38.27 34.3 37.37C34.28 37.25 34.28 37.12 34.28 37C34.28 35.99 35.08 35.15 36.08 35.15L36.17 35.15C37.16 35.15 37.97 35.97 37.97 37C37.97 37.12 37.97 37.25 37.96 37.37C38.3 38.27 39.83 39.16 41.83 39.16C44.05 39.16 45.77 38 45.77 37C45.77 35.99 46.57 35.15 47.57 35.15C48.56 35.15 49.37 35.97 49.37 37C49.37 38 51.1 39.16 53.31 39.16C55.52 39.16 57.25 38 57.25 37C57.25 35.99 58.05 35.15 59.05 35.15C60.05 35.15 60.85 35.97 60.85 37L60.85 48.35C60.76 51.64 57.45 54.21 53.22 54.21ZM49.28 48.35C49.28 49.34 51.01 50.5 53.22 50.5C55.43 50.5 57.16 49.34 57.16 48.35L57.16 42.02C56.02 42.55 54.67 42.86 53.22 42.86C50.9 42.86 48.86 42.08 47.48 40.83C46.11 42.08 44.07 42.86 41.75 42.86C39.47 42.86 37.43 42.1 36.06 40.87C34.68 42.11 32.65 42.86 30.37 42.86C28.05 42.86 26.01 42.08 24.63 40.83C23.26 42.08 21.22 42.86 18.9 42.86C16.62 42.86 14.58 42.1 13.21 40.87C11.83 42.11 9.8 42.86 7.52 42.86C6.07 42.86 4.72 42.55 3.58 42.02L3.58 48.35C3.58 49.34 5.31 50.5 7.52 50.5C9.52 50.5 11.06 49.61 11.4 48.71C11.38 48.59 11.38 48.46 11.38 48.35C11.38 47.33 12.18 46.49 13.18 46.49L13.27 46.49C14.26 46.49 15.07 47.32 15.07 48.35C15.07 48.46 15.07 48.59 15.06 48.71C15.4 49.61 16.93 50.5 18.93 50.5C21.15 50.5 22.87 49.34 22.87 48.35C22.87 47.33 23.67 46.49 24.67 46.49C25.67 46.49 26.47 47.32 26.47 48.35C26.47 49.34 28.2 50.5 30.41 50.5C32.41 50.5 33.95 49.61 34.28 48.71C34.27 48.59 34.27 48.46 34.27 48.35C34.27 47.33 35.07 46.49 36.07 46.49L36.16 46.49C37.15 46.49 37.96 47.32 37.96 48.35C37.96 48.46 37.96 48.59 37.95 48.71C38.28 49.61 39.82 50.5 41.82 50.5C44.03 50.5 45.76 49.34 45.76 48.35C45.76 47.33 46.56 46.49 47.56 46.49C48.48 46.5 49.28 47.33 49.28 48.35Z" fill="#2D527C" fill-opacity="1.000000" fill-rule="nonzero"/>
		<path id="Vector" d="M41.76 65.35C39.46 65.35 37.43 64.59 36.07 63.37C34.7 64.59 32.67 65.35 30.38 65.35C28.06 65.35 26.02 64.58 24.64 63.33C23.27 64.58 21.23 65.35 18.91 65.35C14.68 65.35 11.38 62.77 11.38 59.49C11.38 58.47 12.18 57.63 13.18 57.63L13.27 57.63C14.26 57.63 15.07 58.45 15.07 59.49C15.07 59.59 15.06 59.7 15.05 59.81C15.36 60.72 16.95 61.65 18.93 61.65C21.14 61.65 22.87 60.49 22.87 59.5C22.87 58.48 23.67 57.64 24.67 57.64C25.67 57.64 26.47 58.47 26.47 59.5C26.47 60.49 28.2 61.65 30.41 61.65C32.37 61.65 33.93 60.75 34.27 59.85C34.26 59.73 34.26 59.61 34.26 59.49C34.26 58.47 35.06 57.63 36.06 57.63L36.14 57.63C37.13 57.63 37.95 58.45 37.95 59.49C37.95 59.6 37.95 59.72 37.93 59.85C38.27 60.75 39.84 61.65 41.79 61.65C44.01 61.65 45.73 60.49 45.73 59.5C45.73 58.48 46.53 57.64 47.53 57.64C48.52 57.64 49.33 58.47 49.33 59.5C49.28 62.79 45.98 65.35 41.76 65.35Z" fill="#2D527C" fill-opacity="1.000000" fill-rule="nonzero"/>
	</g>
</svg>
