<svg width="67.000000" height="66.000000" viewBox="0 0 67 66" fill="none" xmlns="http://www.w3.org/2000/svg" xmlns:xlink="http://www.w3.org/1999/xlink">
	<desc>
			Created with Pixso.
	</desc>
	<defs>
		<clipPath id="clip370726_440">
			<rect id="hanger" rx="0.000000" width="66.000000" height="65.000000" transform="translate(0.500000 0.500000)" fill="white" fill-opacity="0"/>
		</clipPath>
	</defs>
	<rect id="hanger" rx="0.000000" width="66.000000" height="65.000000" transform="translate(0.500000 0.500000)" fill="#FFFFFF" fill-opacity="0"/>
	<g clip-path="url(#clip370726_440)">
		<path id="Vector" d="M40.82 49.07L11.07 49.07L11.07 35.06C11.07 30.09 15.15 26.07 20.19 26.07L40.82 26.07L40.82 49.07Z" fill="#CEE8FA" fill-opacity="1.000000" fill-rule="nonzero"/>
		<path id="Vector" d="M40.82 50.94L11.07 50.94C10.02 50.94 9.17 50.1 9.17 49.07L9.17 35.06C9.17 29.08 14.11 24.2 20.19 24.2L40.82 24.2C41.87 24.2 42.72 25.04 42.72 26.07L42.72 49.07C42.72 50.1 41.87 50.94 40.82 50.94ZM12.96 47.2L38.91 47.2L38.91 27.95L20.17 27.95C16.2 27.95 12.96 31.14 12.96 35.06L12.96 47.2Z" fill="#2D527C" fill-opacity="1.000000" fill-rule="nonzero"/>
		<path id="Vector" d="M60.44 34.26L6.55 34.26C2.94 34.26 0 31.36 0 27.79L0 21.97C0 18.42 2.94 15.52 6.55 15.52L20.12 15.52C21.17 15.52 22.02 16.35 22.02 17.38C22.02 18.42 21.17 19.25 20.12 19.25L6.55 19.25C5.03 19.25 3.79 20.48 3.79 21.97L3.79 27.79C3.79 29.28 5.03 30.51 6.55 30.51L60.43 30.51C61.94 30.51 63.19 29.28 63.19 27.79L63.19 21.97C63.19 20.48 61.94 19.25 60.43 19.25L33.5 19.25C32.45 19.25 31.6 18.42 31.6 17.38C31.6 16.35 32.45 15.52 33.5 15.52L60.44 15.52C64.05 15.52 67 18.42 67 21.97L67 27.79C67 31.36 64.05 34.26 60.44 34.26Z" fill="#F0BF5F" fill-opacity="1.000000" fill-rule="nonzero"/>
		<path id="Vector" d="M33.5 19.15C32.91 19.15 32.34 18.89 31.96 18.39C31.34 17.55 31.52 16.38 32.36 15.77C34.15 14.46 37.87 11 37.87 8.7C37.87 6.2 36.02 4.39 33.5 4.39C31.09 4.39 29.12 6.32 29.12 8.7C29.12 9.73 28.27 10.57 27.23 10.57C26.18 10.57 25.33 9.73 25.33 8.7L25.33 8.53C25.33 8.48 25.33 8.43 25.34 8.37C25.5 4.07 29.1 0.64 33.5 0.64C38.15 0.64 41.67 4.11 41.67 8.7C41.67 13.52 35.35 18.26 34.62 18.79C34.28 19.03 33.89 19.15 33.5 19.15Z" fill="#F0BF5F" fill-opacity="1.000000" fill-rule="nonzero"/>
		<path id="Vector" d="M47.54 61.25L22.37 61.25C21.33 61.25 20.47 60.41 20.47 59.38L20.47 49.08C20.47 48.05 21.33 47.21 22.37 47.21L55.94 47.21C56.98 47.21 57.83 48.05 57.83 49.08C57.83 50.11 56.98 50.95 55.94 50.95L24.27 50.95L24.27 57.51L47.54 57.51C48.58 57.51 49.43 58.35 49.43 59.38C49.43 60.41 48.58 61.25 47.54 61.25Z" fill="#2D527C" fill-opacity="1.000000" fill-rule="nonzero"/>
		<path id="Vector" d="M55.92 49.07L55.92 33.56C55.92 29.42 52.52 26.07 48.32 26.07L22.37 26.07L22.37 49.07L55.92 49.07Z" fill="#CEE8FA" fill-opacity="1.000000" fill-rule="nonzero"/>
		<path id="Vector" d="M55.92 50.94L22.37 50.94C21.33 50.94 20.47 50.1 20.47 49.07L20.47 26.09C20.47 25.05 21.33 24.22 22.37 24.22L48.33 24.22C53.57 24.22 57.83 28.42 57.83 33.58L57.83 49.08C57.83 50.1 56.97 50.94 55.92 50.94ZM24.27 47.2L54.03 47.2L54.03 33.56C54.03 30.47 51.48 27.95 48.33 27.95L24.27 27.95L24.27 47.2Z" fill="#2D527C" fill-opacity="1.000000" fill-rule="nonzero"/>
		<path id="Vector" d="M22.37 65.35C21.33 65.35 20.47 64.51 20.47 63.48L20.47 59.38C20.47 58.35 21.33 57.51 22.37 57.51C23.42 57.51 24.27 58.35 24.27 59.38L24.27 63.48C24.27 64.51 23.42 65.35 22.37 65.35Z" fill="#2D527C" fill-opacity="1.000000" fill-rule="nonzero"/>
		<path id="Vector" d="M55.92 65.35C54.88 65.35 54.03 64.51 54.03 63.48L54.03 47.87C54.03 46.84 54.88 46 55.92 46C56.97 46 57.82 46.84 57.82 47.87L57.82 63.48C57.83 64.51 56.97 65.35 55.92 65.35Z" fill="#2D527C" fill-opacity="1.000000" fill-rule="nonzero"/>
		<path id="Vector" d="M47.54 65.35C46.49 65.35 45.64 64.51 45.64 63.48L45.64 59.38C45.64 58.35 46.49 57.51 47.54 57.51C48.58 57.51 49.43 58.35 49.43 59.38L49.43 63.48C49.43 64.51 48.58 65.35 47.54 65.35Z" fill="#2D527C" fill-opacity="1.000000" fill-rule="nonzero"/>
		<path id="Vector" d="M39.15 65.35C38.1 65.35 37.25 64.51 37.25 63.48L37.25 59.38C37.25 58.35 38.1 57.51 39.15 57.51C40.2 57.51 41.05 58.35 41.05 59.38L41.05 63.48C41.05 64.51 40.2 65.35 39.15 65.35Z" fill="#2D527C" fill-opacity="1.000000" fill-rule="nonzero"/>
		<path id="Vector" d="M30.76 65.35C29.71 65.35 28.86 64.51 28.86 63.48L28.86 59.38C28.86 58.35 29.71 57.51 30.76 57.51C31.81 57.51 32.66 58.35 32.66 59.38L32.66 63.48C32.66 64.51 31.81 65.35 30.76 65.35Z" fill="#2D527C" fill-opacity="1.000000" fill-rule="nonzero"/>
	</g>
</svg>
