<svg width="64.000000" height="66.000000" viewBox="0 0 64 66" fill="none" xmlns="http://www.w3.org/2000/svg" xmlns:xlink="http://www.w3.org/1999/xlink">
	<desc>
			Created with Pixso.
	</desc>
	<defs>
		<clipPath id="clip370726_422">
			<rect id="heating" rx="0.000000" width="63.000000" height="65.000000" transform="translate(0.500000 0.500000)" fill="white" fill-opacity="0"/>
		</clipPath>
	</defs>
	<rect id="heating" rx="0.000000" width="63.000000" height="65.000000" transform="translate(0.500000 0.500000)" fill="#FFFFFF" fill-opacity="0"/>
	<g clip-path="url(#clip370726_422)">
		<path id="Vector" d="M58.23 61.26L49.43 61.26C48.5 61.26 47.73 60.48 47.73 59.51C47.73 58.54 48.5 57.76 49.43 57.76L58.23 57.76C59.55 57.76 60.61 56.66 60.61 55.31L60.61 23.48C60.61 22.13 59.55 21.03 58.23 21.03L17.23 21.03C15.92 21.03 14.86 22.13 14.86 23.48L14.86 55.33C14.86 56.69 15.92 57.78 17.23 57.78L40.11 57.78C41.05 57.78 41.81 58.57 41.81 59.54C41.81 60.5 41.05 61.29 40.11 61.29L17.23 61.29C14.06 61.29 11.47 58.62 11.47 55.35L11.47 23.48C11.47 20.21 14.06 17.54 17.23 17.54L58.23 17.54C61.41 17.54 64 20.21 64 23.48L64 55.33C64 58.6 61.41 61.26 58.23 61.26Z" fill="#2D527C" fill-opacity="1.000000" fill-rule="nonzero"/>
		<path id="Vector" d="M23.83 53.1C22.21 53.1 20.87 51.73 20.87 50.05L20.87 28.75C20.87 27.08 22.21 25.7 23.83 25.7C25.46 25.7 26.8 27.08 26.8 28.75L26.8 50.05C26.78 51.73 25.46 53.1 23.83 53.1Z" fill="#CEE8FA" fill-opacity="1.000000" fill-rule="nonzero"/>
		<path id="Vector" d="M23.83 54.84C21.27 54.84 19.18 52.69 19.18 50.05L19.18 28.75C19.18 26.11 21.27 23.96 23.83 23.96C26.4 23.96 28.48 26.11 28.48 28.75L28.48 50.05C28.48 52.69 26.4 54.84 23.83 54.84ZM23.83 27.45C23.13 27.45 22.57 28.03 22.57 28.75L22.57 50.05C22.57 50.77 23.13 51.35 23.83 51.35C24.53 51.35 25.1 50.77 25.1 50.05L25.1 28.75C25.1 28.03 24.52 27.45 23.83 27.45Z" fill="#F0BF5F" fill-opacity="1.000000" fill-rule="nonzero"/>
		<path id="Vector" d="M37.73 53.1C36.11 53.1 34.77 51.73 34.77 50.05L34.77 28.75C34.77 27.08 36.11 25.7 37.73 25.7C39.36 25.7 40.7 27.08 40.7 28.75L40.7 50.05C40.7 51.73 39.37 53.1 37.73 53.1Z" fill="#CEE8FA" fill-opacity="1.000000" fill-rule="nonzero"/>
		<path id="Vector" d="M37.73 54.84C35.17 54.84 33.08 52.69 33.08 50.05L33.08 28.75C33.08 26.11 35.17 23.96 37.73 23.96C40.3 23.96 42.38 26.11 42.38 28.75L42.38 50.05C42.4 52.69 40.31 54.84 37.73 54.84ZM37.73 27.45C37.03 27.45 36.47 28.03 36.47 28.75L36.47 50.05C36.47 50.77 37.03 51.35 37.73 51.35C38.43 51.35 39 50.77 39 50.05L39 28.75C39 28.03 38.43 27.45 37.73 27.45Z" fill="#F0BF5F" fill-opacity="1.000000" fill-rule="nonzero"/>
		<path id="Vector" d="M51.65 53.1C50.02 53.1 48.68 51.73 48.68 50.05L48.68 28.75C48.68 27.08 50.02 25.7 51.65 25.7C53.27 25.7 54.61 27.08 54.61 28.75L54.61 50.05C54.61 51.73 53.27 53.1 51.65 53.1Z" fill="#CEE8FA" fill-opacity="1.000000" fill-rule="nonzero"/>
		<path id="Vector" d="M51.65 54.84C49.08 54.84 47 52.69 47 50.05L47 28.75C47 26.11 49.08 23.96 51.65 23.96C54.21 23.96 56.3 26.11 56.3 28.75L56.3 50.05C56.3 52.69 54.21 54.84 51.65 54.84ZM51.65 27.45C50.95 27.45 50.38 28.03 50.38 28.75L50.38 50.05C50.38 50.77 50.95 51.35 51.65 51.35C52.35 51.35 52.91 50.77 52.91 50.05L52.91 28.75C52.91 28.03 52.35 27.45 51.65 27.45Z" fill="#F0BF5F" fill-opacity="1.000000" fill-rule="nonzero"/>
		<path id="Vector" d="M13.17 29.71L7.28 29.71C6.34 29.71 5.58 28.92 5.58 27.95C5.58 26.99 6.34 26.2 7.28 26.2L13.17 26.2C14.11 26.2 14.87 26.99 14.87 27.95C14.87 28.92 14.11 29.71 13.17 29.71Z" fill="#2D527C" fill-opacity="1.000000" fill-rule="nonzero"/>
		<path id="Vector" d="M13.17 52.59L7.28 52.59C6.34 52.59 5.58 51.8 5.58 50.84C5.58 49.87 6.34 49.08 7.28 49.08L13.17 49.08C14.11 49.08 14.87 49.87 14.87 50.84C14.87 51.8 14.11 52.59 13.17 52.59Z" fill="#2D527C" fill-opacity="1.000000" fill-rule="nonzero"/>
		<path id="Vector" d="M5.92 32.41C4.98 32.41 4.22 31.63 4.22 30.66L4.22 11.97C4.22 11 4.98 10.22 5.92 10.22C6.86 10.22 7.62 11.02 7.62 11.97L7.62 30.66C7.62 31.63 6.86 32.41 5.92 32.41Z" fill="#F0BF5F" fill-opacity="1.000000" fill-rule="nonzero"/>
		<path id="Vector" d="M5.92 61.26C4.98 61.26 4.22 60.48 4.22 59.51L4.22 39.4C4.22 38.43 4.98 37.65 5.92 37.65C6.86 37.65 7.62 38.43 7.62 39.4L7.62 59.51C7.62 60.48 6.86 61.26 5.92 61.26Z" fill="#2D527C" fill-opacity="1.000000" fill-rule="nonzero"/>
		<path id="Vector" d="M1.7 6.48L10.17 6.48L10.17 15.91L1.7 15.91L1.7 6.48Z" fill="#CEE8FA" fill-opacity="1.000000" fill-rule="evenodd"/>
		<path id="Vector" d="M10.16 17.66L1.7 17.66C0.76 17.66 0 16.87 0 15.9L0 6.48C0 5.51 0.76 4.73 1.7 4.73L10.17 4.73C11.11 4.73 11.87 5.51 11.87 6.48L11.87 15.92C11.86 16.87 11.1 17.66 10.16 17.66ZM3.38 14.16L8.47 14.16L8.47 8.22L3.38 8.22L3.38 14.16Z" fill="#2D527C" fill-opacity="1.000000" fill-rule="nonzero"/>
	</g>
</svg>
