<svg width="66.000000" height="66.000000" viewBox="0 0 66 66" fill="none" xmlns="http://www.w3.org/2000/svg" xmlns:xlink="http://www.w3.org/1999/xlink">
	<desc>
			Created with Pixso.
	</desc>
	<defs>
		<clipPath id="clip370726_530">
			<rect id="parking" rx="0.000000" width="65.000000" height="65.000000" transform="translate(0.500000 0.500000)" fill="white" fill-opacity="0"/>
		</clipPath>
	</defs>
	<rect id="parking" rx="0.000000" width="65.000000" height="65.000000" transform="translate(0.500000 0.500000)" fill="#FFFFFF" fill-opacity="0"/>
	<g clip-path="url(#clip370726_530)">
		<path id="Vector" d="M15.63 60.31L11.18 60.31C10.19 60.31 9.39 59.51 9.39 58.52C9.39 57.53 10.19 56.73 11.18 56.73L15.63 56.73C16.62 56.73 17.42 57.53 17.42 58.52C17.42 59.51 16.62 60.31 15.63 60.31Z" fill="#F0BF5F" fill-opacity="1.000000" fill-rule="nonzero"/>
		<path id="Vector" d="M64.2 60.31L59.49 60.31C58.49 60.31 57.69 59.51 57.69 58.52C57.69 57.53 58.49 56.73 59.49 56.73L64.2 56.73C65.2 56.73 66 57.53 66 58.52C66 59.51 65.2 60.31 64.2 60.31Z" fill="#F0BF5F" fill-opacity="1.000000" fill-rule="nonzero"/>
		<path id="Vector" d="M62.23 60.09L59.49 60.09C58.49 60.09 57.69 59.29 57.69 58.3C57.69 57.31 58.49 56.51 59.49 56.51L60.44 56.51L60.44 55.72C60.44 52.06 58.88 49.11 55.93 47.17C53.77 45.77 51.04 45.02 48.03 45.02L21.9 45.02C19.51 45.02 17.42 46.71 16.93 49.06L15.36 56.51L15.9 56.51C16.89 56.51 17.69 57.31 17.69 58.3C17.69 59.29 16.89 60.09 15.9 60.09L13.16 60.09C12.62 60.09 12.1 59.85 11.76 59.43C11.43 59.01 11.29 58.47 11.4 57.94L13.43 48.32C14.27 44.34 17.84 41.44 21.91 41.44L48.04 41.44C51.75 41.44 55.17 42.38 57.9 44.17C61.86 46.76 64.04 50.86 64.04 55.72L64.04 58.3C64.02 59.29 63.22 60.09 62.23 60.09Z" fill="#F0BF5F" fill-opacity="1.000000" fill-rule="nonzero"/>
		<path id="Vector" d="M41.95 60.09L28.28 60.09C27.28 60.09 26.49 59.29 26.49 58.3C26.49 57.31 27.28 56.51 28.28 56.51L41.97 56.51C42.96 56.51 43.76 57.31 43.76 58.3C43.76 59.29 42.95 60.09 41.95 60.09Z" fill="#F0BF5F" fill-opacity="1.000000" fill-rule="nonzero"/>
		<path id="Vector" d="M48.03 43.23C50.73 43.23 53.27 43.78 55.42 44.84L52.91 33.95C52.21 31.29 49.8 29.44 47.06 29.44L31.09 29.44C28.64 29.44 26.43 30.91 25.51 33.18L21.75 43.23L48.03 43.23Z" fill="#CEE8FA" fill-opacity="1.000000" fill-rule="nonzero"/>
		<path id="Vector" d="M55.42 46.63C55.15 46.63 54.88 46.57 54.64 46.45C52.73 45.52 50.44 45.02 48.03 45.02L21.75 45.02C21.16 45.02 20.62 44.74 20.28 44.25C19.95 43.77 19.87 43.15 20.08 42.6L23.83 32.54C23.84 32.52 23.84 32.51 23.86 32.48C25.07 29.54 27.92 27.63 31.1 27.63L47.07 27.63C50.63 27.63 53.75 30.03 54.65 33.47C54.65 33.48 54.66 33.51 54.66 33.52L57.18 44.42C57.33 45.09 57.09 45.8 56.55 46.22C56.22 46.5 55.82 46.63 55.42 46.63ZM24.35 41.44L48.04 41.44C49.74 41.44 51.39 41.64 52.95 42.04L51.18 34.39C50.68 32.53 48.99 31.24 47.07 31.24L31.09 31.24C29.37 31.24 27.84 32.26 27.17 33.85L24.35 41.44Z" fill="#F0BF5F" fill-opacity="1.000000" fill-rule="nonzero"/>
		<path id="Vector" d="M41.95 52.56C40.96 52.56 40.16 51.76 40.16 50.77L40.16 30.12C40.16 29.13 40.96 28.33 41.95 28.33C42.95 28.33 43.75 29.13 43.75 30.12L43.75 50.76C43.75 51.76 42.95 52.56 41.95 52.56Z" fill="#F0BF5F" fill-opacity="1.000000" fill-rule="nonzero"/>
		<path id="Vector" d="M54.46 64.86C50.54 64.86 47.36 61.68 47.36 57.76C47.36 53.84 50.54 50.66 54.46 50.66C58.38 50.66 61.56 53.84 61.56 57.76C61.56 61.68 58.38 64.86 54.46 64.86ZM54.46 54.24C52.52 54.24 50.94 55.81 50.94 57.76C50.94 59.7 52.51 61.28 54.46 61.28C56.39 61.28 57.98 59.7 57.98 57.76C57.98 55.81 56.39 54.24 54.46 54.24Z" fill="#2D527C" fill-opacity="1.000000" fill-rule="nonzero"/>
		<path id="Vector" d="M20.84 64.86C16.92 64.86 13.74 61.68 13.74 57.76C13.74 53.84 16.92 50.66 20.84 50.66C24.76 50.66 27.94 53.84 27.94 57.76C27.95 61.68 24.76 64.86 20.84 64.86ZM20.84 54.24C18.89 54.24 17.32 55.81 17.32 57.76C17.32 59.7 18.89 61.28 20.84 61.28C22.79 61.28 24.36 59.7 24.36 57.76C24.36 55.81 22.79 54.24 20.84 54.24Z" fill="#2D527C" fill-opacity="1.000000" fill-rule="nonzero"/>
		<path id="Vector" d="M24.38 25.71L1.79 25.71C0.79 25.71 0 24.91 0 23.92L0 2.92C0 1.93 0.79 1.13 1.79 1.13L24.38 1.13C25.38 1.13 26.18 1.93 26.18 2.92L26.18 23.92C26.18 24.91 25.38 25.71 24.38 25.71ZM3.58 22.13L22.59 22.13L22.59 4.71L3.58 4.71L3.58 22.13Z" fill="#2D527C" fill-opacity="1.000000" fill-rule="nonzero"/>
		<path id="Vector" d="M13.32 7.25L9.99 7.25C9.3 7.25 8.79 7.69 8.79 8.28L8.79 18.54C8.79 19.16 9.42 19.59 10.31 19.59C11.21 19.59 11.83 19.16 11.83 18.54L11.83 15.33L13.16 15.33C15.85 15.33 17.4 13.88 17.4 11.33L17.4 11.25C17.4 8.67 15.95 7.25 13.32 7.25ZM13.16 12.85L11.83 12.85L11.83 9.99L13.16 9.99C13.96 9.99 14.34 10.42 14.34 11.33L14.34 11.51C14.34 12.41 13.96 12.85 13.16 12.85Z" fill="#2D527C" fill-opacity="1.000000" fill-rule="nonzero"/>
		<path id="Vector" d="M13.08 40.79C12.09 40.79 11.29 39.99 11.29 39L11.29 24.15C11.29 23.16 12.09 22.36 13.08 22.36C14.07 22.36 14.87 23.16 14.87 24.15L14.87 39C14.88 39.99 14.07 40.79 13.08 40.79Z" fill="#2D527C" fill-opacity="1.000000" fill-rule="nonzero"/>
	</g>
</svg>
