<svg width="67.000000" height="66.000000" viewBox="0 0 67 66" fill="none" xmlns="http://www.w3.org/2000/svg" xmlns:xlink="http://www.w3.org/1999/xlink">
	<desc>
			Created with Pixso.
	</desc>
	<defs>
		<clipPath id="clip370726_494">
			<rect id="security-box" rx="0.000000" width="66.000000" height="65.000000" transform="translate(0.500000 0.500000)" fill="white" fill-opacity="0"/>
		</clipPath>
	</defs>
	<rect id="security-box" rx="0.000000" width="66.000000" height="65.000000" transform="translate(0.500000 0.500000)" fill="#FFFFFF" fill-opacity="0"/>
	<g clip-path="url(#clip370726_494)">
		<path id="Vector" d="M60.5 61.55L6.49 61.55C2.91 61.55 0 58.69 0 55.15L0 10.84C0 7.3 2.91 4.44 6.49 4.44L41.94 4.44C42.96 4.44 43.78 5.25 43.78 6.26C43.78 7.27 42.96 8.08 41.94 8.08L6.49 8.08C4.94 8.08 3.69 9.31 3.69 10.84L3.69 55.15C3.69 56.68 4.94 57.91 6.49 57.91L60.5 57.91C62.05 57.91 63.3 56.68 63.3 55.15L63.3 10.84C63.3 9.31 62.05 8.08 60.5 8.08L52.57 8.08C51.55 8.08 50.73 7.27 50.73 6.26C50.73 5.25 51.55 4.44 52.57 4.44L60.5 4.44C64.09 4.44 67 7.32 67 10.84L67 55.15C67 58.69 64.08 61.55 60.5 61.55Z" fill="#2D527C" fill-opacity="1.000000" fill-rule="nonzero"/>
		<path id="Vector" d="M53.87 53.53L18.13 53.53C17.11 53.53 16.29 52.72 16.29 51.71C16.29 50.71 17.11 49.89 18.13 49.89L53.87 49.89C54.58 49.89 55.15 49.33 55.15 48.63L55.15 17.37C55.15 16.68 54.58 16.11 53.87 16.11L18.13 16.11C17.11 16.11 16.29 15.3 16.29 14.29C16.29 13.29 17.11 12.47 18.13 12.47L53.87 12.47C56.62 12.47 58.86 14.68 58.86 17.38L58.86 48.63C58.86 51.33 56.62 53.53 53.87 53.53Z" fill="#2D527C" fill-opacity="1.000000" fill-rule="nonzero"/>
		<path id="Vector" d="M9.98 53.53C8.96 53.53 8.13 52.72 8.13 51.71L8.13 14.28C8.13 13.27 8.96 12.46 9.98 12.46C11 12.46 11.82 13.27 11.82 14.28L11.82 51.71C11.84 52.72 11 53.53 9.98 53.53Z" fill="#2D527C" fill-opacity="1.000000" fill-rule="nonzero"/>
		<path id="Vector" d="M42.67 47.5C34.56 47.5 27.95 40.99 27.95 33C27.95 25 34.56 18.49 42.67 18.49C50.78 18.49 57.39 25 57.39 33C57.39 40.99 50.78 47.5 42.67 47.5ZM42.67 22.13C36.58 22.13 31.64 27 31.64 33C31.64 38.99 36.58 43.86 42.67 43.86C48.75 43.86 53.7 38.99 53.7 33C53.7 27 48.75 22.13 42.67 22.13ZM42.67 39.56C38.99 39.56 36.01 36.62 36.01 33C36.01 29.37 38.99 26.43 42.67 26.43C46.35 26.43 49.33 29.37 49.33 33C49.33 36.62 46.35 39.56 42.67 39.56ZM42.67 30.07C41.03 30.07 39.7 31.38 39.7 33C39.7 34.61 41.03 35.92 42.67 35.92C44.3 35.92 45.64 34.61 45.64 33C45.64 31.38 44.3 30.07 42.67 30.07Z" fill="#F0BF5F" fill-opacity="1.000000" fill-rule="nonzero"/>
		<path id="Vector" d="M9.98 39.78L18.12 39.78L18.12 45.67L9.98 45.67L9.98 39.78Z" fill="#CEE8FA" fill-opacity="1.000000" fill-rule="evenodd"/>
		<path id="Vector" d="M18.13 47.48L9.98 47.48C8.96 47.48 8.13 46.67 8.13 45.67L8.13 39.78C8.13 38.77 8.96 37.96 9.98 37.96L18.12 37.96C19.14 37.96 19.96 38.77 19.96 39.78L19.96 45.67C19.98 46.67 19.15 47.48 18.13 47.48ZM11.84 43.85L16.29 43.85L16.29 41.59L11.84 41.59L11.84 43.85Z" fill="#2D527C" fill-opacity="1.000000" fill-rule="nonzero"/>
		<path id="Vector" d="M9.98 20.32L18.12 20.32L18.12 26.21L9.98 26.21L9.98 20.32Z" fill="#CEE8FA" fill-opacity="1.000000" fill-rule="evenodd"/>
		<path id="Vector" d="M18.13 28.03L9.98 28.03C8.96 28.03 8.13 27.22 8.13 26.21L8.13 20.32C8.13 19.32 8.96 18.51 9.98 18.51L18.12 18.51C19.14 18.51 19.96 19.32 19.96 20.32L19.96 26.21C19.98 27.22 19.15 28.03 18.13 28.03ZM11.84 24.4L16.29 24.4L16.29 22.14L11.84 22.14L11.84 24.4Z" fill="#2D527C" fill-opacity="1.000000" fill-rule="nonzero"/>
		<path id="Vector" d="M33.98 43.37C33.51 43.37 33.04 43.19 32.67 42.84C31.95 42.13 31.95 40.97 32.67 40.27L37.96 35.06C38.68 34.35 39.85 34.35 40.57 35.06C41.29 35.77 41.29 36.93 40.57 37.64L35.29 42.84C34.92 43.19 34.45 43.37 33.98 43.37Z" fill="#F0BF5F" fill-opacity="1.000000" fill-rule="nonzero"/>
		<path id="Vector" d="M46.41 31.13C45.94 31.13 45.47 30.95 45.1 30.6C44.38 29.89 44.38 28.73 45.1 28.02L50.05 23.15C50.77 22.44 51.95 22.44 52.67 23.15C53.39 23.86 53.39 25.02 52.67 25.72L47.72 30.6C47.37 30.95 46.88 31.13 46.41 31.13Z" fill="#F0BF5F" fill-opacity="1.000000" fill-rule="nonzero"/>
		<path id="Vector" d="M38.83 31.04C38.36 31.04 37.89 30.86 37.53 30.51L32.67 25.72C31.95 25.02 31.95 23.86 32.67 23.15C33.39 22.44 34.57 22.44 35.29 23.15L40.14 27.93C40.86 28.64 40.86 29.8 40.14 30.51C39.79 30.87 39.31 31.04 38.83 31.04Z" fill="#F0BF5F" fill-opacity="1.000000" fill-rule="nonzero"/>
		<path id="Vector" d="M51.36 43.37C50.89 43.37 50.42 43.19 50.05 42.84L45.13 38C44.41 37.29 44.41 36.13 45.13 35.42C45.85 34.71 47.03 34.71 47.75 35.42L52.67 40.27C53.39 40.97 53.39 42.13 52.67 42.84C52.3 43.19 51.83 43.37 51.36 43.37Z" fill="#F0BF5F" fill-opacity="1.000000" fill-rule="nonzero"/>
	</g>
</svg>
