<svg width="66.000000" height="66.000000" viewBox="0 0 66 66" fill="none" xmlns="http://www.w3.org/2000/svg" xmlns:xlink="http://www.w3.org/1999/xlink">
	<desc>
			Created with Pixso.
	</desc>
	<defs>
		<clipPath id="clip370726_405">
			<rect id="hotel-key" rx="0.000000" width="65.000000" height="65.000000" transform="translate(0.500000 0.500000)" fill="white" fill-opacity="0"/>
		</clipPath>
	</defs>
	<rect id="hotel-key" rx="0.000000" width="65.000000" height="65.000000" transform="translate(0.500000 0.500000)" fill="#FFFFFF" fill-opacity="0"/>
	<g clip-path="url(#clip370726_405)">
		<path id="Vector" d="M38.45 18.48L19.2 18.48C18.17 18.48 17.33 17.64 17.33 16.61C17.33 15.58 18.17 14.74 19.2 14.74L38.45 14.74C39.48 14.74 40.32 15.58 40.32 16.61C40.32 17.64 39.48 18.48 38.45 18.48Z" fill="#2D527C" fill-opacity="1.000000" fill-rule="nonzero"/>
		<path id="Vector" d="M23.31 49.48L17.37 49.48C7.79 49.48 0 41.68 0 32.11C0 25.76 3.45 19.92 9.02 16.87C9.92 16.37 11.07 16.7 11.57 17.62C12.07 18.52 11.74 19.67 10.82 20.17C6.45 22.57 3.75 27.14 3.75 32.12C3.75 39.63 9.86 45.74 17.37 45.74L23.31 45.74C24.35 45.74 25.18 46.58 25.18 47.61C25.2 48.63 24.35 49.48 23.31 49.48Z" fill="#2D527C" fill-opacity="1.000000" fill-rule="nonzero"/>
		<path id="Vector" d="M24.91 63.2C16.37 63.2 9.41 56.24 9.41 47.68C9.41 46.65 10.24 45.81 11.27 45.81C12.31 45.81 13.14 46.65 13.14 47.68C13.14 54.16 18.42 59.45 24.91 59.45C31.41 59.45 36.68 54.17 36.68 47.68C36.68 41.19 31.41 35.91 24.91 35.91C21.65 35.91 18.62 37.21 16.38 39.57C15.67 40.32 14.48 40.36 13.72 39.63C12.98 38.92 12.94 37.74 13.66 36.98C16.62 33.86 20.62 32.14 24.91 32.14C33.47 32.14 40.43 39.11 40.43 47.66C40.43 56.22 33.47 63.2 24.91 63.2Z" fill="#F0BF5F" fill-opacity="1.000000" fill-rule="nonzero"/>
		<path id="Vector" d="M49.56 45.78L38.11 45.78C37.08 45.78 36.24 44.94 36.24 43.91C36.24 42.88 37.08 42.04 38.11 42.04L49.56 42.04C50.59 42.04 51.43 42.88 51.43 43.91C51.43 44.94 50.59 45.78 49.56 45.78Z" fill="#F0BF5F" fill-opacity="1.000000" fill-rule="nonzero"/>
		<path id="Vector" d="M61.81 53.32L38.55 53.32C37.52 53.32 36.68 52.49 36.68 51.45C36.68 50.42 37.52 49.59 38.55 49.59L61.81 49.59C62.05 49.59 62.24 49.39 62.24 49.15L62.24 38.5C62.24 38.14 61.95 37.85 61.6 37.85L59.98 37.85C59.61 37.85 59.33 38.15 59.33 38.5L59.33 43.5C59.33 44.53 58.49 45.37 57.46 45.37C56.43 45.37 55.59 44.53 55.59 43.5L55.59 38.5C55.59 36.08 57.56 34.1 59.99 34.1L61.61 34.1C64.04 34.1 66.01 36.08 66.01 38.5L66.01 49.15C66 51.44 64.11 53.32 61.81 53.32Z" fill="#F0BF5F" fill-opacity="1.000000" fill-rule="nonzero"/>
		<path id="Vector" d="M30.25 47.6C30.25 50.55 27.86 52.94 24.91 52.94C21.97 52.94 19.58 50.55 19.58 47.6C19.58 44.65 21.97 42.26 24.91 42.26C27.86 42.26 30.25 44.65 30.25 47.6Z" fill="#CEE8FA" fill-opacity="1.000000" fill-rule="evenodd"/>
		<path id="Vector" d="M24.91 54.81C20.94 54.81 17.71 51.57 17.71 47.6C17.71 43.63 20.94 40.39 24.91 40.39C28.88 40.39 32.12 43.63 32.12 47.6C32.12 51.57 28.9 54.81 24.91 54.81ZM24.91 44.15C23 44.15 21.46 45.69 21.46 47.6C21.46 49.51 23 51.05 24.91 51.05C26.82 51.05 28.37 49.51 28.37 47.6C28.37 45.69 26.82 44.15 24.91 44.15Z" fill="#F0BF5F" fill-opacity="1.000000" fill-rule="nonzero"/>
		<path id="Vector" d="M27.89 24.56L27.89 8.64C27.89 6.45 29.67 4.67 31.86 4.67L60.14 4.67C62.33 4.67 64.11 6.45 64.11 8.64L64.11 24.56C64.11 26.76 62.33 28.53 60.14 28.53L31.87 28.53C29.67 28.53 27.89 26.76 27.89 24.56Z" fill="#CEE8FA" fill-opacity="1.000000" fill-rule="nonzero"/>
		<path id="Vector" d="M60.14 30.42L31.87 30.42C28.65 30.42 26.02 27.79 26.02 24.56L26.02 8.64C26.02 5.42 28.65 2.79 31.87 2.79L60.16 2.79C63.38 2.79 66.01 5.42 66.01 8.64L66.01 24.56C66 27.79 63.37 30.42 60.14 30.42ZM31.87 6.54C30.71 6.54 29.77 7.48 29.77 8.64L29.77 24.56C29.77 25.72 30.71 26.67 31.87 26.67L60.16 26.67C61.32 26.67 62.26 25.72 62.26 24.56L62.26 8.64C62.26 7.48 61.32 6.54 60.16 6.54L31.87 6.54Z" fill="#2D527C" fill-opacity="1.000000" fill-rule="nonzero"/>
		<path id="Vector" d="M44.44 17.71L43.81 17.71L43.81 16.56C43.81 15.9 43.15 15.48 42.13 15.48C41.12 15.48 40.46 15.9 40.46 16.56L40.46 17.71L39.31 17.71L42.55 11.21C42.6 11.08 42.66 10.93 42.66 10.77C42.66 9.96 41.58 9.46 40.99 9.46C40.37 9.46 39.87 9.77 39.58 10.32L35.2 18.94C35.04 19.23 35.02 19.47 35.02 19.6C35.02 20.32 35.5 20.81 36.19 20.81L40.46 20.81L40.46 22.64C40.46 23.4 41.32 23.74 42.13 23.74C42.93 23.74 43.81 23.39 43.81 22.64L43.81 20.81L44.44 20.81C45.01 20.81 45.54 20.05 45.54 19.25C45.54 18.51 45.19 17.71 44.44 17.71Z" fill="#2D527C" fill-opacity="1.000000" fill-rule="nonzero"/>
		<path id="Vector" d="M55.89 17.71L55.26 17.71L55.26 16.56C55.26 15.9 54.6 15.48 53.58 15.48C52.56 15.48 51.91 15.9 51.91 16.56L51.91 17.71L50.76 17.71L54.01 11.21C54.06 11.08 54.12 10.93 54.12 10.77C54.12 9.96 53.04 9.46 52.45 9.46C51.83 9.46 51.33 9.77 51.04 10.32L46.66 18.94C46.5 19.23 46.48 19.47 46.48 19.6C46.48 20.32 46.96 20.81 47.65 20.81L51.92 20.81L51.92 22.64C51.92 23.4 52.78 23.74 53.59 23.74C54.41 23.74 55.27 23.39 55.27 22.64L55.27 20.81L55.9 20.81C56.47 20.81 57 20.05 57 19.25C57 18.51 56.65 17.71 55.89 17.71Z" fill="#2D527C" fill-opacity="1.000000" fill-rule="nonzero"/>
	</g>
</svg>
